<svg xmlns="http://www.w3.org/2000/svg" viewBox="0 0 200 200">
  <!-- Person 1 -->
  <circle cx="50" cy="50" r="20" fill="#FFD700" /> <!-- Head -->
  <rect x="35" y="70" width="30" height="50" fill="#1E90FF" /> <!-- Body -->
  <rect x="20" y="70" width="15" height="50" fill="#1E90FF" transform="rotate(10, 27.5, 95)" /> <!-- Left Arm -->
  <rect x="65" y="70" width="15" height="50" fill="#1E90FF" transform="rotate(-10, 72.5, 95)" /> <!-- Right Arm -->
  <rect x="35" y="120" width="10" height="50" fill="#228B22" /> <!-- Left Leg -->
  <rect x="55" y="120" width="10" height="50" fill="#228B22" /> <!-- Right Leg -->

  <!-- Person 2 -->
  <circle cx="100" cy="50" r="20" fill="#FF6347" /> <!-- Head -->
  <rect x="85" y="70" width="30" height="50" fill="#4682B4" /> <!-- Body -->
  <rect x="70" y="70" width="15" height="50" fill="#4682B4" transform="rotate(10, 77.5, 95)" /> <!-- Left Arm -->
  <rect x="115" y="70" width="15" height="50" fill="#4682B4" transform="rotate(-10, 122.5, 95)" /> <!-- Right Arm -->
  <rect x="85" y="120" width="10" height="50" fill="#6A5ACD" /> <!-- Left Leg -->
  <rect x="105" y="120" width="10" height="50" fill="#6A5ACD" /> <!-- Right Leg -->

  <!-- Person 3 -->
  <circle cx="150" cy="50" r="20" fill="#32CD32" /> <!-- Head -->
  <rect x="135" y="70" width="30" height="50" fill="#FF4500" /> <!-- Body -->
  <rect x="120" y="70" width="15" height="50" fill="#FF4500" transform="rotate(10, 127.5, 95)" /> <!-- Left Arm -->
  <rect x="165" y="70" width="15" height="50" fill="#FF4500" transform="rotate(-10, 172.5, 95)" /> <!-- Right Arm -->
  <rect x="135" y="120" width="10" height="50" fill="#8B4513" /> <!-- Left Leg -->
  <rect x="155" y="120" width="10" height="50" fill="#8B4513" /> <!-- Right Leg -->
</svg>
